<svg width="46" height="83" viewBox="0 0 46 83" fill="none" xmlns="http://www.w3.org/2000/svg">
<path d="M15.4395 44.1304C15.4395 44.1304 20.6195 45.7104 21.2995 48.5904C21.9395 51.2804 17.0995 52.5204 17.0995 52.5204C17.0995 52.5204 25.4995 53.4404 25.6095 50.1804C25.7195 46.9204 22.6695 43.6904 20.4695 43.8504C18.2695 44.0104 15.4395 44.1304 15.4395 44.1304Z" fill="#EAE4D1"/>
<path d="M16.32 45.9299C14.5688 45.6395 12.7773 45.7007 11.05 46.1099C9.41551 46.4835 7.89774 47.2527 6.63001 48.3499L6.33001 48.6499L6.20001 48.7999C6.20001 48.7999 6.20001 48.8499 6.20001 48.8799C6.12028 49.0168 6.05333 49.1608 6.00001 49.3099C5.85334 49.8153 5.73976 50.3298 5.66001 50.8499C5.30705 53.2842 5.25332 55.7526 5.50001 58.1999C5.72596 60.8225 6.1201 63.4279 6.68001 65.9999C7.1826 68.2986 7.85101 70.5579 8.68001 72.7599C9.20001 74.1599 9.82001 75.5299 10.41 76.8799L10.85 77.8799L11.2 78.9999C11.41 79.7099 11.63 80.4099 11.87 81.0999C12.15 81.9499 11.57 82.3099 10.38 82.0999C9.64076 81.9353 8.93207 81.6552 8.28001 81.2699C7.88005 81.0492 7.50172 80.7914 7.15001 80.4999C6.96001 80.3499 6.81001 80.1799 6.62001 80.0299C6.48502 79.8374 6.36148 79.637 6.25001 79.4299C4.76237 76.5204 3.53428 73.4853 2.58001 70.3599C1.64618 67.2214 1.04291 63.9939 0.78001 60.7299C0.62001 58.7299 0.38001 56.7299 0.26001 54.6799C0.199788 53.6108 0.199788 52.5391 0.26001 51.4699C0.354434 50.286 0.603207 49.1194 1.00001 47.9999C1.2754 47.283 1.65261 46.6094 2.12001 45.9999L2.53001 45.5099L2.89001 45.1699C3.12233 44.9436 3.36955 44.7332 3.63001 44.5399C4.61782 43.7637 5.70813 43.1277 6.87001 42.6499C9.08013 41.7691 11.4312 41.2948 13.81 41.2499C16.7007 41.1453 19.5734 41.7459 22.18 42.9999C23.4148 43.5541 24.5069 44.3825 25.3733 45.4222C26.2398 46.4619 26.8576 47.6855 27.18 48.9999C27.2347 49.297 27.2648 49.598 27.27 49.8999C27.27 50.1999 27.21 50.4999 27.19 50.7999C27.17 51.0999 26.96 51.3599 26.83 51.6299L26.31 52.3599L25.65 52.9799C25.4169 53.1658 25.1695 53.333 24.91 53.4799C24.4805 53.7275 24.0325 53.9415 23.57 54.1199C22.0069 54.6741 20.3749 55.0106 18.72 55.1199C17.92 55.2199 17.14 55.1899 16.34 55.2199C15.54 55.2499 14.75 55.2199 13.97 55.1099C13.19 54.9999 12.6 55.0299 11.97 54.8999C11.34 54.7699 10.81 54.6699 10.38 54.5499C10.0274 54.4294 9.69135 54.2648 9.38001 54.0599C8.93104 53.7786 8.60303 53.3401 8.46001 52.8299C8.3749 52.6228 8.30798 52.4087 8.26001 52.1899C8.18001 51.5499 9.33001 51.1899 11.11 51.1899C13.6851 51.4151 16.2749 51.4151 18.85 51.1899C19.9891 51.0938 21.1096 50.8414 22.18 50.4399C22.4 50.3399 22.58 50.2299 22.78 50.1399C22.98 50.0499 22.91 50.0499 22.92 50.0399C22.92 50.1099 22.83 50.0399 22.92 50.0399C22.8905 49.9779 22.8571 49.9178 22.82 49.8599C22.7558 49.7496 22.6857 49.6427 22.61 49.5399C22.43 49.3399 22.31 49.0999 22.13 48.8899C21.7255 48.4028 21.2421 47.9871 20.7 47.6599C19.3758 46.7921 17.8772 46.2254 16.31 45.9999L16.32 45.9299Z" fill="#EAE4D1"/>
<path d="M13.5008 12.5202C13.6208 11.9902 13.7408 11.4702 13.8808 10.9402L14.0208 10.3902C14.0587 10.1536 14.1122 9.91978 14.1808 9.6902L14.5908 8.3002C14.8308 7.3602 15.2308 6.5302 15.5308 5.6602L16.1408 4.5702L16.4408 4.0302L16.7708 3.6002C17.4519 2.56799 18.4175 1.75522 19.5508 1.2602C20.0868 1.0154 20.6628 0.86971 21.2508 0.830198C21.5886 0.810084 21.9273 0.850727 22.2508 0.950198C22.534 1.04656 22.8057 1.17401 23.0608 1.3302C23.7242 1.77214 24.2949 2.33943 24.7408 3.0002C25.2941 3.87353 25.6869 4.8387 25.9008 5.8502C26.1405 6.93413 26.3042 8.03347 26.3908 9.1402C26.3908 9.7102 26.4708 10.2802 26.4908 10.8502C26.5108 11.4202 26.4908 12.0602 26.4908 12.3102C26.4908 13.6702 26.4908 15.0202 26.3808 16.3702C26.2408 19.0502 26.0408 21.7102 25.6708 24.3702C25.4008 26.7202 25.1208 29.0802 24.8508 31.3702C24.6198 34.4252 23.8584 37.4165 22.6008 40.2102C22.1508 41.0802 21.6008 40.7302 21.1808 39.8002C20.5706 38.5127 20.2563 37.105 20.2608 35.6802C20.3108 34.9502 20.2608 34.2102 20.3608 33.4802L20.5308 31.2902L20.8108 26.8702C20.9008 25.4002 20.9908 23.8702 21.0708 22.4402C21.1508 21.0102 21.3608 19.4402 21.5008 18.0002C21.6725 16.205 21.6892 14.3983 21.5508 12.6002L21.5408 12.0002V11.5502L21.4208 10.6102C21.3627 10.1986 21.2196 9.80359 21.0008 9.4502C20.9499 9.368 20.8734 9.30484 20.783 9.2705C20.6926 9.23616 20.5934 9.23254 20.5008 9.2602C20.3392 9.31608 20.1945 9.41248 20.0808 9.5402C19.5887 10.1528 19.2218 10.8561 19.0008 11.6102C18.9432 11.7474 18.8932 11.8876 18.8508 12.0302L18.5808 12.8902C18.4108 13.4802 18.2308 14.0602 18.0808 14.6602C17.7508 15.8502 17.4908 17.0702 17.2708 18.2902C16.5684 21.9933 16.1439 25.7438 16.0008 29.5102C15.9748 32.3812 16.172 35.2498 16.5908 38.0902C16.6708 38.7102 16.8108 39.3002 16.8808 39.9202C16.9523 40.7464 16.9017 41.5787 16.7308 42.3902C16.5658 42.8871 16.2685 43.3296 15.8708 43.6702C15.7112 43.8347 15.5408 43.9884 15.3608 44.1302C15.0708 44.3202 14.7508 44.2002 14.3608 43.8202C13.7658 43.2973 13.3003 42.6435 13.0008 41.9102C12.4913 40.6064 12.1551 39.2414 12.0008 37.8502C11.8008 36.4702 11.6408 35.0602 11.5608 33.6602C11.4075 30.828 11.4342 27.989 11.6408 25.1602C11.7941 23.0535 12.0241 20.9469 12.3308 18.8402C12.4908 17.7802 12.6708 16.7302 12.8608 15.6802C13.0508 14.6302 13.2108 13.5602 13.4208 12.5002L13.5008 12.5202Z" fill="#EAE4D1"/>
<path d="M39.2003 18.0804C39.4503 17.2404 39.6703 16.3904 39.8603 15.5604C40.0503 14.7304 40.2703 13.9304 40.4003 13.1404V12.8504V12.6704C40.4047 12.6238 40.4047 12.5769 40.4003 12.5304C40.4111 12.4306 40.4111 12.3301 40.4003 12.2304C40.4106 11.9952 40.3515 11.7622 40.2303 11.5604C40.1933 11.4828 40.1289 11.4215 40.0496 11.3883C39.9703 11.3552 39.8816 11.3523 39.8003 11.3804C39.6658 11.4699 39.5387 11.5703 39.4203 11.6804C39.3072 11.7698 39.2034 11.8703 39.1103 11.9804C39.0434 12.0441 38.9831 12.1145 38.9303 12.1904L38.8703 12.2604L38.7703 12.4404L38.5503 12.8104C37.9803 13.8104 37.4703 14.8104 36.8903 15.8804C35.7703 17.9604 34.7403 20.1304 33.8003 22.3404C32.9703 24.3404 32.3403 26.3404 31.6603 28.3404C31.2503 29.6304 30.9003 30.9404 30.5203 32.2304L29.9403 34.1504C29.7703 34.7704 29.4103 35.3803 29.2203 35.9403C29.0903 36.2803 28.9003 36.3104 28.6403 36.3804C28.3803 36.4504 28.0103 36.3103 27.6403 35.8703C27.194 35.3266 26.8301 34.7201 26.5603 34.0704C26.2765 33.311 26.1905 32.492 26.3103 31.6903C26.5303 30.2303 26.8103 28.8004 27.1303 27.3904C27.414 25.9727 27.8154 24.5812 28.3303 23.2304C29.337 20.5067 30.5471 17.8626 31.9503 15.3204C32.3803 14.5604 32.7903 13.7704 33.1903 12.9804L34.5303 10.6004L35.0003 10.0004C35.1803 9.71035 35.3503 9.42035 35.5603 9.12035C35.9603 8.52035 36.3803 7.96035 36.8003 7.42035C37.5379 6.4539 38.5225 5.70424 39.6503 5.25035C40.2482 5.03504 40.9024 5.03504 41.5003 5.25035C41.7903 5.40035 42.0803 5.54035 42.3703 5.70035L43.1503 6.25035C44.0943 7.23208 44.7364 8.46426 45.0003 9.80035C45.158 10.5231 45.2385 11.2606 45.2403 12.0004C45.2681 12.3331 45.2681 12.6676 45.2403 13.0004C45.2403 13.2704 45.2403 13.5504 45.1803 13.8004C45.0814 14.8125 44.9042 15.8155 44.6503 16.8004C44.0178 19.1522 43.2328 21.4605 42.3003 23.7104C40.9503 27.0904 39.3003 30.3204 37.7403 33.5204C36.5103 36.0104 35.4303 38.5204 34.1403 40.9804C33.8503 41.5204 33.5903 42.0703 33.2603 42.6003C32.8799 43.3424 32.3363 43.9885 31.6703 44.4904C31.1825 44.7272 30.6275 44.7873 30.1003 44.6604C29.867 44.6321 29.6362 44.5853 29.4103 44.5204C29.0803 44.3904 28.9403 44.0604 28.9103 43.5204C28.8507 42.8572 28.9826 42.1908 29.2903 41.6003L32.3703 35.0604C33.3703 32.8204 34.3703 30.5404 35.3703 28.2504C36.8265 24.9034 38.0559 21.4623 39.0503 17.9504L39.2003 18.0804Z" fill="#EAE4D1"/>
<path d="M34.1195 63.9997C32.1295 66.5315 29.9391 68.8992 27.5695 71.0797C26.7304 71.9365 25.8278 72.7288 24.8695 73.4497C23.9589 74.1179 22.9761 74.6814 21.9395 75.1297C21.3596 75.3806 20.752 75.5618 20.1295 75.6697C19.3905 75.8071 18.6294 75.7659 17.9095 75.5497L17.3395 75.3497C17.1695 75.2597 16.9995 75.1497 16.8395 75.0497C16.5057 74.8393 16.2085 74.5758 15.9595 74.2697C15.7135 73.9643 15.5085 73.6282 15.3495 73.2697C15.2243 72.9445 15.124 72.6102 15.0495 72.2697C14.874 71.0725 15.0082 69.8503 15.4395 68.7197C16.0612 66.9661 16.9227 65.3071 17.9995 63.7897C19.2687 61.8684 20.8947 60.2083 22.7895 58.8997C23.3895 58.4997 23.6895 58.9897 23.6795 59.8297C23.6464 60.906 23.2988 61.9489 22.6795 62.8297C22.3395 63.2497 22.0595 63.6997 21.7495 64.1297C21.5895 64.3497 21.4495 64.5697 21.3195 64.7897L20.8595 65.4197C20.3033 66.244 19.8054 67.1061 19.3695 67.9997C18.9376 68.7851 18.6274 69.6314 18.4495 70.5097C18.3809 70.8384 18.3541 71.1744 18.3695 71.5097C18.4195 71.7297 18.4195 71.9197 18.5095 72.0197C18.5995 72.1197 18.5595 72.0897 18.5995 72.1297C18.6118 72.1515 18.6291 72.1701 18.6499 72.184C18.6708 72.1979 18.6946 72.2067 18.7195 72.2097C18.7195 72.2097 18.7795 72.2697 18.8495 72.2697C18.9157 72.2594 18.9832 72.2594 19.0495 72.2697C19.5088 72.2155 19.9516 72.0656 20.3495 71.8297C21.4039 71.2035 22.3806 70.455 23.2595 69.5997C25.3984 67.6065 27.3222 65.3944 28.9995 62.9997C30.0676 61.5176 31.0493 59.9751 31.9395 58.3797C32.5995 57.1797 33.2595 55.9697 33.7895 54.7297C33.9295 54.4197 34.0395 54.0997 34.1595 53.7897C34.2195 53.6397 34.2795 53.4797 34.3295 53.3197L34.4495 52.9497C34.5798 52.5673 34.6671 52.1715 34.7095 51.7697C34.7809 51.4932 34.7599 51.2008 34.6498 50.9372C34.5397 50.6737 34.3464 50.4533 34.0995 50.3097C33.5995 50.0397 32.9595 50.4197 32.5995 50.6997C32.4195 50.8397 32.2695 51.0297 32.1395 51.1297C32.0444 51.2154 31.9261 51.271 31.7995 51.2897C31.7995 51.2897 31.5395 51.2897 31.4195 51.2897C31.2732 51.3047 31.1258 51.3047 30.9795 51.2897C30.7001 51.2628 30.4302 51.174 30.1895 51.0297C29.9175 50.8282 29.6722 50.593 29.4595 50.3297C29.262 50.1117 29.0877 49.8738 28.9395 49.6197C28.7651 49.1785 28.7033 48.7008 28.7595 48.2297C28.7573 47.9549 28.8117 47.6826 28.9195 47.4297C28.9763 47.2982 29.0432 47.1711 29.1195 47.0497L29.2395 46.8597L29.3095 46.7597C29.3095 46.6697 29.3095 46.6697 29.3095 46.6597L29.3895 46.5797C30.0674 46.0112 30.7787 45.4836 31.5195 44.9997C32.2298 44.5441 33.0206 44.2284 33.8495 44.0697C34.2299 44.0121 34.6148 43.9887 34.9995 43.9997H35.5795L36.1295 44.1197C36.895 44.3104 37.6154 44.6503 38.2495 45.1197L39.0995 46.1197C39.3677 46.4462 39.5929 46.8058 39.7695 47.1897C39.9395 47.5797 40.0395 48.0097 40.1895 48.4297C40.3395 48.8497 40.3095 49.3497 40.3695 49.8097C40.4295 50.2697 40.3695 50.8097 40.3195 51.2997C40.2541 51.8109 40.147 52.316 39.9995 52.8097C39.8935 53.336 39.7498 53.854 39.5695 54.3597L39.3695 54.9597C39.3195 55.1097 39.2695 55.2597 39.2095 55.3997C37.949 58.5026 36.2665 61.4168 34.2095 64.0597L34.1195 63.9997Z" fill="#EAE4D1"/>
<path d="M39.1991 67.4602C37.7766 69.3163 36.2297 71.0736 34.5691 72.7202C33.9391 73.3002 33.3891 73.9402 32.7091 74.4702C31.5083 75.4134 30.2343 76.2594 28.8991 77.0002C28.2044 77.3857 27.4825 77.7199 26.7391 78.0002C25.9507 78.3168 25.117 78.5059 24.2691 78.5602C23.4303 78.5912 22.5984 78.3978 21.8591 78.0002C21.4369 77.7994 21.065 77.5065 20.7709 77.1431C20.4767 76.7797 20.2676 76.355 20.1591 75.9002C20.0587 75.2924 20.1315 74.6686 20.3691 74.1002C20.5635 73.6255 20.845 73.1913 21.1991 72.8202C21.7695 72.1739 22.4459 71.6294 23.1991 71.2102C23.6691 70.9702 23.8991 71.3502 23.9391 72.0202C23.9875 72.8202 23.8788 73.622 23.6191 74.3802C23.5029 74.6363 23.4157 74.9047 23.3591 75.1802C23.3591 75.2802 23.3591 75.1802 23.3591 75.2402C23.3591 75.2402 23.2991 75.2402 23.5191 75.3602C23.8506 75.5452 24.2384 75.6021 24.6091 75.5202C24.9076 75.486 25.2002 75.412 25.4791 75.3002C25.7791 75.1402 26.0891 75.0302 26.3991 74.8402C27.9528 73.8278 29.3084 72.54 30.3991 71.0402C31.7291 69.4302 33.1691 67.8702 34.3991 66.1202C35.1661 65.0657 35.8706 63.9671 36.5091 62.8302C37.5066 61.2061 38.2202 59.424 38.6191 57.5602C38.7391 56.9779 38.6726 56.3726 38.4291 55.8302C38.4004 55.7445 38.3441 55.6706 38.2691 55.6202C38.2478 55.6032 38.2214 55.5939 38.1941 55.5939C38.1668 55.5939 38.1404 55.6032 38.1191 55.6202L38.3391 55.4402L38.4591 55.3502C38.5291 55.3502 38.6191 55.1902 38.6591 55.1602C38.7011 55.118 38.7381 55.071 38.7691 55.0202C38.8691 54.8802 38.7691 54.9102 38.7691 55.2002C38.7487 55.3963 38.7487 55.5941 38.7691 55.7902C38.7691 55.9202 38.7691 56.0502 38.7691 56.1802V56.2502L38.5491 56.3002C38.1297 56.4113 37.6886 56.4113 37.2691 56.3002C36.8341 56.0933 36.4666 55.7674 36.2091 55.3602C36.0491 55.1402 35.8791 54.9402 35.7491 54.7302C35.5459 54.3725 35.4785 53.9536 35.5591 53.5502C35.6254 53.055 35.8458 52.5932 36.1891 52.2302C36.5094 51.8456 36.8832 51.5088 37.2991 51.2302C37.7192 50.9567 38.1966 50.7838 38.6944 50.7248C39.1921 50.6658 39.6968 50.7224 40.1691 50.8902C40.8267 51.0794 41.4299 51.4222 41.9291 51.8902C42.0424 51.9902 42.1424 52.0902 42.2291 52.1902C42.3191 52.2902 42.3791 52.3702 42.4491 52.4602L42.8391 53.0202C43.0556 53.372 43.2301 53.7479 43.3591 54.1402C43.4886 54.4624 43.5824 54.7977 43.6391 55.1402C43.8291 56.2541 43.8087 57.3938 43.5791 58.5002C43.4096 59.4011 43.1585 60.2847 42.8291 61.1402C41.8846 63.4084 40.6691 65.554 39.2091 67.5302L39.1991 67.4602Z" fill="#EAE4D1"/>
</svg>
